<svg width="20" height="17" viewBox="0 0 20 17" fill="none" xmlns="http://www.w3.org/2000/svg">
<path d="M19.3333 8.31995C19.3333 8.76292 19.0041 9.12902 18.577 9.18696L18.4583 9.19495L0.95825 9.19495C0.475002 9.19495 0.08325 8.80319 0.08325 8.31995C0.08325 7.87697 0.41243 7.51087 0.83952 7.45293L0.95825 7.44495L18.4583 7.44495C18.9415 7.44495 19.3333 7.8367 19.3333 8.31995Z" fill="#ffffff"/>
<path d="M8.63374 14.7284C8.97619 15.0694 8.97738 15.6234 8.63641 15.9658C8.32643 16.2771 7.84039 16.3064 7.49729 16.053L7.39897 15.9685L0.340639 8.94048C0.0283957 8.62958 -8.58307e-06 8.14178 0.255438 7.79869L0.340588 7.70043L7.39892 0.671262C7.74134 0.330261 8.29535 0.331408 8.63636 0.673824C8.94636 0.985111 8.97359 1.47128 8.71872 1.8133L8.63379 1.91126L2.19842 8.32078L8.63374 14.7284Z" fill="#ffffff"/>
</svg>
