<svg width="18" height="18" viewBox="0 0 15 16" fill="currentColor" xmlns="http://www.w3.org/2000/svg">
<path d="M9.6022 8.00001L14.6189 2.99501C14.8386 2.77533 14.962 2.47736 14.962 2.16668C14.962 1.85599 14.8386 1.55803 14.6189 1.33835C14.3992 1.11866 14.1012 0.995239 13.7905 0.995239C13.4799 0.995239 13.1819 1.11866 12.9622 1.33835L7.9572 6.35501L2.9522 1.33835C2.73252 1.11866 2.43456 0.995239 2.12387 0.995239C1.81319 0.995239 1.51523 1.11866 1.29554 1.33835C1.07585 1.55803 0.95243 1.85599 0.95243 2.16668C0.95243 2.47736 1.07585 2.77533 1.29554 2.99501L6.3122 8.00001L1.29554 13.005C1.18619 13.1135 1.09939 13.2425 1.04016 13.3847C0.980934 13.5268 0.950439 13.6793 0.950439 13.8333C0.950439 13.9874 0.980934 14.1398 1.04016 14.282C1.09939 14.4242 1.18619 14.5532 1.29554 14.6617C1.40399 14.771 1.53303 14.8578 1.6752 14.9171C1.81737 14.9763 1.96986 15.0068 2.12387 15.0068C2.27788 15.0068 2.43037 14.9763 2.57254 14.9171C2.71471 14.8578 2.84375 14.771 2.9522 14.6617L7.9572 9.64501L12.9622 14.6617C13.0707 14.771 13.1997 14.8578 13.3419 14.9171C13.484 14.9763 13.6365 15.0068 13.7905 15.0068C13.9446 15.0068 14.097 14.9763 14.2392 14.9171C14.3814 14.8578 14.5104 14.771 14.6189 14.6617C14.7282 14.5532 14.815 14.4242 14.8742 14.282C14.9335 14.1398 14.964 13.9874 14.964 13.8333C14.964 13.6793 14.9335 13.5268 14.8742 13.3847C14.815 13.2425 14.7282 13.1135 14.6189 13.005L9.6022 8.00001Z" fill="currentColor"/>
</svg>
